<?xml version="1.0" encoding="utf-8"?>
<!-- Generator: Adobe Illustrator 16.0.0, SVG Export Plug-In . SVG Version: 6.00 Build 0)  -->
<!DOCTYPE svg PUBLIC "-//W3C//DTD SVG 1.1//EN" "http://www.w3.org/Graphics/SVG/1.1/DTD/svg11.dtd">
<svg version="1.1" id="레이어_1" xmlns="http://www.w3.org/2000/svg" xmlns:xlink="http://www.w3.org/1999/xlink" x="0px"
	 y="0px" width="456px" height="85.333px" viewBox="0 0 456 85.333" enable-background="new 0 0 456 85.333" xml:space="preserve">
<g>
	<path fill="#151515" d="M412.987,82.182v-7.678c0-0.527,0.428-0.957,0.956-0.957c0.527,0,0.955,0.43,0.955,0.957v7.678"/>
	<g>
		<g>
			<path fill="#231815" d="M20.411,2.698C9.398,2.698,2,10.597,2,22.353C2,34.349,9.263,42.1,20.502,42.1
				c6.315,0,11.973-2.957,14.413-7.532c0.879-1.639,0.477-3.692-0.897-4.58c-0.813-0.519-1.924-0.699-2.902-0.473
				c-0.731,0.172-1.313,0.563-1.635,1.101c-1.887,3.128-5.327,5.069-8.979,5.069c-5.422,0-11.259-4.172-11.259-13.332
				c0-9.146,5.608-13.24,11.167-13.24c3.57,0,6.463,1.653,8.6,4.915c0.979,1.527,3.164,1.585,4.598,0.687
				c1.562-0.986,1.771-3.159,0.988-4.569C32.074,5.622,26.506,2.698,20.411,2.698z"/>
		</g>
		<g>
			<path fill="#231815" d="M59.932,2.698c-9.095,0-18.272,6.077-18.272,19.655c0,13.641,9.177,19.747,18.272,19.747
				c8.733,0,18.134-6.18,18.134-19.747C78.066,8.775,68.958,2.698,59.932,2.698z M59.932,35.777
				c-6.391,0-11.029-5.645-11.029-13.424c0-7.851,4.535-13.333,11.029-13.333c5.411,0,10.89,4.58,10.89,13.333
				C70.822,31.165,65.343,35.777,59.932,35.777z"/>
		</g>
		<g>
			<path fill="#231815" d="M102.631,2.698c-9.096,0-18.273,6.077-18.273,19.655c0,13.641,9.177,19.747,18.273,19.747
				c8.733,0,18.134-6.18,18.134-19.747C120.765,8.775,111.657,2.698,102.631,2.698z M102.631,35.777
				c-6.391,0-11.029-5.645-11.029-13.424c0-7.851,4.535-13.333,11.029-13.333c5.411,0,10.89,4.58,10.89,13.333
				C113.521,31.165,108.042,35.777,102.631,35.777z"/>
		</g>
		<g>
			<path fill="#231815" d="M132.751,3.021c-2.16,0-3.668,1.414-3.668,3.437v31.881c0,2.023,1.508,3.438,3.668,3.438
				s3.668-1.415,3.668-3.438v-8.582l5.748-5.748l11.431,16.174c0.583,0.837,1.34,1.356,2.19,1.508
				c0.865,0.149,1.753-0.075,2.582-0.658c0.768-0.542,1.253-1.287,1.399-2.15c0.152-0.892-0.075-1.82-0.639-2.616l-12.121-17.099
				l10.284-10.284c1.487-1.487,1.505-3.392,0.045-4.852c-0.674-0.675-1.555-1.06-2.449-1.012c-0.888,0.021-1.741,0.396-2.402,1.058
				l-16.066,16.066V6.458C136.419,4.434,134.912,3.021,132.751,3.021z"/>
		</g>
		<g>
			<path fill="#231815" d="M197.353,19.077v19.262c0,2.089,1.349,3.438,3.438,3.438c2.088,0,3.437-1.349,3.437-3.438V6.458
				c0-2.088-1.349-3.437-3.437-3.437c-1.561,0-2.618,0.762-3.537,2.55l-11.573,22.81L174.012,5.57
				c-0.682-1.632-1.949-2.549-3.49-2.549c-2.088,0-3.437,1.349-3.437,3.437v31.881c0,2.089,1.349,3.438,3.437,3.438
				c2.089,0,3.438-1.349,3.438-3.438V19.063l7.634,15.422c0.902,1.805,2.238,2.684,4.086,2.684c2.193,0,3.383-1.459,3.995-2.684
				L197.353,19.077z"/>
		</g>
		<g>
			<path fill="#231815" d="M215.663,34.855c-1.724,0-2.654,1.629-2.654,3.162c0,1.571,0.912,3.162,2.654,3.162h12.808
				c1.724,0,2.654-1.629,2.654-3.162c0-1.571-0.912-3.162-2.654-3.162h-2.736V9.941h2.736c1.724,0,2.654-1.628,2.654-3.161
				c0-1.571-0.912-3.162-2.654-3.162h-12.808c-1.724,0-2.654,1.629-2.654,3.162c0,1.571,0.912,3.161,2.654,3.161h2.735v24.914
				H215.663z"/>
		</g>
		<g>
			<path fill="#231815" d="M247.151,16.75l18.135,23.647c0.716,0.942,1.679,1.379,3.03,1.379c1.732,0,3.575-1.171,3.575-3.345V6.458
				c0-2.023-1.489-3.437-3.622-3.437s-3.621,1.414-3.621,3.437v21.539L246.56,4.492c-0.72-0.931-1.462-1.471-3.123-1.471
				c-1.71,0-3.529,1.204-3.529,3.437v31.881c0,2.023,1.489,3.438,3.622,3.438c2.132,0,3.621-1.415,3.621-3.438V16.75z"/>
		</g>
	</g>
	<g>
		<g>
			<path fill="#888888" d="M291.055,5.972h10.617c8.043,0,11.583,3.356,11.583,9.331c0,4.642-3.311,8.318-7.952,9.422l9.743,14.11
				H311.6l-9.238-13.743h-8.641v13.743h-2.666V5.972z M301.718,22.748c6.021,0,8.596-3.217,8.596-7.491
				c0-4.366-2.667-6.94-8.458-6.94h-8.135v14.431H301.718z"/>
			<path fill="#888888" d="M323.266,5.972h20.086v2.345h-17.42V20.22h16.04v2.574h-16.04v13.605h17.603v2.436h-20.269V5.972z"/>
			<path fill="#888888" d="M351.709,22.748v-0.506c0-10.616,7.721-16.545,15.167-16.545c4.734,0,7.859,1.333,9.789,2.85
				l-1.103,2.344c-2.206-1.655-4.918-2.712-8.687-2.712c-6.021,0-12.317,5.24-12.317,14.064v0.415
				c0,7.905,5.01,14.018,11.628,14.018c4.229,0,7.859-1.195,10.295-3.17l1.104,2.021c-2.298,2.16-6.664,3.677-11.444,3.677
				C358.511,39.202,351.709,33.227,351.709,22.748z"/>
			<path fill="#888888" d="M387.734,5.972h2.711v32.909h-2.711V5.972z"/>
			<path fill="#888888" d="M401.748,5.972h11.076c7.216,0,11.261,2.804,11.261,9.652c0,6.618-4.734,9.974-10.847,9.974h-8.825
				v13.237h-2.665V5.972z M412.732,23.117c5.377,0,8.457-2.298,8.457-7.263c0-5.285-2.666-7.537-8.641-7.537h-8.136v14.8H412.732z"
				/>
			<path fill="#888888" d="M433.5,5.972h20.085v2.345h-17.42V20.22h16.041v2.574h-16.041v13.605h17.604v2.436H433.5V5.972z"/>
		</g>
	</g>
	<path fill="#F9BE00" d="M291.055,58.228v-4.231c0-2.181,1.769-3.949,3.949-3.949h155.737c1.558,0,2.82,1.263,2.82,2.821v5.359
		v1.786c0,12.879-10.44,23.319-23.318,23.319h-6.81v-1.521V67.927c0-5.356-4.343-9.699-9.699-9.699c-5.357,0-9.7,4.343-9.7,9.699
		v15.406h-9.428h-80.232c-12.879,0-23.319-10.44-23.319-23.319V58.228"/>
	<path fill="#151515" d="M413.734,58.228c-5.356,0-9.699,4.343-9.699,9.699v15.406l1.477-1.151V67.893
		c0-5.007,3.794-9.125,8.663-9.643C414.027,58.244,413.883,58.228,413.734,58.228z"/>
</g>
</svg>
